# xmcd
#
# Track frame offsets: 
#        150
#        14713
#        27201
#        34092
#        65554
#        90137
#        112306
#        125271
#        144420
#        155771
#        163915
#        178164
#        192365
#        202112
#        214586
#        227050
#        236394
#        242102
#        262328
#        274742
#        297947
#        306781
#        316229
#        326779
#        345982
#
# Disc length: 4793 seconds
#
# Revision: 0
# Processed by: cddbd v1.5.2PL0 Copyright (c) Steve Scherf et al.
# Submitted via: ExactAudioCopy v0.95b4
#
DISCID=7b12b719
DTITLE=Various Artist - Yeti Seven
DYEAR=2009
DGENRE=Lo-Fi
TTITLE0=Abner Jay - I Wanna Job
TTITLE1=Dum Dum Girls - Brite Futures
TTITLE2=Jacuzzi Boys - Black Sand
TTITLE3=Moon Duo - Love on the Sea (radio edit)
TTITLE4=Nancy Dupree - Docta King
TTITLE5=Zola Jesus - Clay Bodies
TTITLE6=Carl Simmons - Scotty Guffy Sings
TTITLE7=The Dutchess and the Duke - Living This Life
TTITLE8=Explode Into Colors - Paper (hot sax version)
TTITLE9=Bible Aires Spiritual Singers - You Better Get Ready
TTITLE10=The Great Unwashed - Middle-Sized Mind
TTITLE11=Limes - Uptown
TTITLE12=Nodzzz - In the City (Contact High) (demo)
TTITLE13=39 Clocks - Stupid Art
TTITLE14=Christmas Island - Pre Apocaplyptic (demo)
TTITLE15=Finally Punk - Negtive Creep
TTITLE16=Dizzy Spells Martian - All the Names (sketch)
TTITLE17=Wooden Shjips - Out of My Head
TTITLE18=Fresh and Onlys - Be My Hooker
TTITLE19=Eternal Tapestry - Prism Light Traveler (edit)
TTITLE20=The Gospel Singers - Noah Found Grace
TTITLE21=Woods - Get Back
TTITLE22=PSE All-Stars - Oh Liz
TTITLE23=Grouper - False Horizon
TTITLE24=Crystal Stilts - Temptation Inside of Your Heart
EXTD=
EXTT0=
EXTT1=
EXTT2=
EXTT3=
EXTT4=
EXTT5=
EXTT6=
EXTT7=
EXTT8=
EXTT9=
EXTT10=
EXTT11=
EXTT12=
EXTT13=
EXTT14=
EXTT15=
EXTT16=
EXTT17=
EXTT18=
EXTT19=
EXTT20=
EXTT21=
EXTT22=
EXTT23=
EXTT24=
PLAYORDER=
